/* XPM */
static char *graphic[] = {
/* width height num_colors chars_per_pixel */
"16 16 184 2", 
/* colors */
"   c None",
".  c #766F3B",
"X  c #EDC201",
"o  c #97872B",
"O  c #F4DE7A",
"+  c None",
"@  c #F1D453",
"#  c None",
"$  c None",
"%  c None",
"&  c #46505C",
"*  c #787240",
"=  c #ECC406",
"-  c #F3D864",
";  c #F1D454",
":  c None",
">  c #F2D75D",
",  c #46505D",
"<  c #EFCD36",
"1  c #EDC81A",
"2  c #BEA116",
"3  c #F4DE7C",
"4  c #EDC202",
"5  c #EEC307",
"6  c #F2D75E",
"7  c #ECC100",
"8  c #ECC206",
"9  c #6C6940",
"0  c #EEC413",
"q  c None",
"w  c #EABF00",
"e  c #EDC619",
"r  c #F5E186",
"t  c None",
"y  c None",
"u  c #ECC100",
"i  c #F2D760",
"p  c #404E67",
"a  c #ECC205",
"s  c #ECC100",
"d  c #F6E491",
"f  c None",
"g  c #9E8B26",
"h  c #F3DA6A",
"j  c #CAA90F",
"k  c #EDC300",
"l  c None",
"z  c #EEC925",
"x  c None",
"c  c #EDC100",
"v  c #897D2E",
"b  c #E0B905",
"n  c #DDB607",
"m  c #EBC100",
"M  c #9E8B28",
"N  c None",
"B  c #EBC101",
"V  c None",
"C  c None",
"Z  c #D5B10C",
"A  c #F0D247",
"S  c #696849",
"D  c #EDC512",
"F  c #4A535D",
"G  c #EDC100",
"H  c #F2D658",
"J  c None",
"K  c None",
"L  c #F7E79E",
"P  c #EFC817",
"I  c #EECB2A",
"U  c None",
"Y  c #555B59",
"T  c None",
"R  c #E9BE00",
"E  c None",
"W  c None",
"Q  c #F4DD78",
"!  c None",
"~  c #F2D65A",
"^  c #BDA018",
"/  c None",
"(  c None",
")  c None",
"_  c #BA9F1C",
"`  c #B59B1C",
"'  c #ECC611",
"]  c None",
"[  c #F3D964",
"{  c #827832",
"}  c #EEC713",
"|  c None",
" . c #EDC718",
".. c #ECC200",
"X. c #DFB804",
"o. c #F6E69A",
"O. c #ECC612",
"+. c #F5E083",
"@. c #EEC81F",
"#. c #ECC101",
"$. c #F3D965",
"%. c None",
"&. c #F0CF3E",
"*. c #EFCE37",
"=. c #EDC101",
"-. c #B0971E",
";. c #F6E69B",
":. c #EAC000",
">. c #F4DF7D",
",. c #ECC102",
"<. c None",
"1. c None",
"2. c None",
"3. c None",
"4. c #F0CF3F",
"5. c #AE961D",
"6. c #EDC102",
"7. c #E5BC01",
"8. c #EDC71A",
"9. c #ECC103",
"0. c #F3D967",
"q. c #243B77",
"w. c #D4B00C",
"e. c #EEC514",
"r. c #F1D249",
"t. c None",
"y. c #F6E38F",
"u. c #F4DF7F",
"i. c #ECC104",
"p. c #F1D558",
"a. c #F2D861",
"s. c #EFCE3A",
"d. c None",
"f. c #ECC000",
"g. c #ECC201",
"h. c #F6E390",
"j. c #EFCB2C",
"k. c #EDC71C",
"l. c #ECC201",
"z. c None",
"x. c #F2D862",
"c. c #6B6A49",
"v. c #F0D144",
"b. c #F5E28A",
"n. c #807736",
"m. c None",
"M. c #ECC50B",
"N. c #6F6B41",
"B. c #38486C",
"V. c #ECC201",
"C. c None",
"Z. c #EDC200",
"A. c #ECC30A",
"S. c #ECC001",
"D. c #ECC30A",
"F. c #EBC100",
"G. c #223A79",
"H. c #F4DC74",
"J. c #EDC410",
"K. c #ECC50C",
"L. c #EBC000",
"P. c #ECC309",
"I. c #F2D556",
"U. c #EDC200",
"Y. c #F7E69C",
"T. c #F5E28C",
"R. c #B59A18",
"E. c #F4DC75",
"W. c #EBC100",
"Q. c #EDC307",
"!. c #ECC30A",
"~. c #7D763C",
"^. c None",
"/. c #F2D557",
"(. c #F7E69D",
"). c #EECA29",
"_. c #31436D",
"`. c #EDC200",
"'. c #1A357F",
"]. c #F1D451",
"[. c #E9BF01",
"{. c #F3DB70",
"}. c #F4DE79",
"|. c #F1D452",
/* pixels */
"        ) 3.q W.k t.t z.        ",
"    l m.S.O.*.|.|.< ' g.W l     ",
"  2.C Q.; L h.H.E.d (.].8 $ l   ",
"  % 5 H.y.I a m m a j.d {.= f   ",
"T X p.T.J.m :.j ^ Z [.D h.@ l.x ",
"] } L z m [.-., _.B._ m ).(.0 / ",
"c 4.r 9.L.2 F 9 . o Z m i.b.s.# ",
"u 6 - m w * Y v n.n m m m h H G ",
"f.i a.m R S p { n.n :.m m 0.~ U.",
"..v.u.,.L.g '.& N.M ` m ,.+.&.F.",
"! P Y.k.m X.~.G.q.c.w.m @.Y.e.E ",
"J =.x.3 P.L.7.R.5.b m !.u.> V.: ",
"<.+ M.u.O e B L.L.#.8.>.3 A.1.| ",
"  V q K.[ o.Q I./.}.;.a.D.U K   ",
"    V ^.6.1 r.$.$.A  .4 N d.    ",
"      <.C.%.7 s `.Z.( y <.      "
};
