/* XPM */
static char *graphic[] = {
/* width height num_colors chars_per_pixel */
"32 32 415 2", 
/* colors */
"   c None",
".  c #ECC200",
"X  c None",
"o  c None",
"O  c #EDC200",
"+  c #EBC100",
"@  c #F0CD2F",
"#  c #EDC200",
"$  c None",
"%  c #FDF7E0",
"&  c #EDC200",
"*  c None",
"=  c #EEC611",
"-  c #F5DE75",
";  c #ECC000",
":  c #595D53",
">  c #FCF6D9",
",  c #746E3A",
"<  c #E2BA01",
"1  c None",
"2  c #F9ECB2",
"3  c #F3D757",
"4  c #062890",
"5  c #FAEFBB",
"6  c #ECC000",
"7  c None",
"8  c #354669",
"9  c #F7E594",
"0  c #DCB607",
"q  c None",
"w  c #F8E89D",
"e  c None",
"r  c #827732",
"t  c #EEC612",
"y  c #F5DE76",
"u  c #1B357D",
"i  c #EDC000",
"p  c #968424",
"a  c #EDC200",
"s  c #F3D758",
"d  c None",
"f  c #133081",
"g  c #AF9516",
"h  c #EDC000",
"j  c None",
"k  c #F1D03A",
"l  c #BA9D11",
"z  c #B59911",
"x  c #EDC200",
"c  c #EEC613",
"v  c #FCF6DB",
"b  c #ECC100",
"n  c #EFC91C",
"m  c #FDF9E4",
"M  c None",
"N  c #62644E",
"B  c None",
"V  c #EDC200",
"C  c #EDC000",
"Z  c #F3D759",
"A  c #FAEFBD",
"S  c #EDC000",
"D  c #F1D03B",
"F  c #F8E89F",
"G  c None",
"H  c #4D5454",
"J  c None",
"K  c None",
"L  c #FEFAEC",
"P  c #6A663D",
"I  c #EEC200",
"U  c #042791",
"Y  c None",
"T  c #EDC200",
"R  c #555951",
"E  c #FAEFBE",
"W  c None",
"Q  c #FBF2C7",
"!  c #F4DA63",
"~  c #133083",
"^  c #EBC100",
"/  c #F1D03C",
"(  c #A28C1C",
")  c #FDF9E6",
"_  c #0D2C89",
"`  c #F6E182",
"'  c #EDC000",
"]  c #EDC200",
"[  c #FBF2C8",
"{  c #ECC100",
"}  c None",
"|  c #F8E8A1",
" . c #EBC100",
".. c #F9EBAA",
"X. c #EBC100",
"o. c #EDC000",
"O. c #EDC000",
"+. c #EFC91F",
"@. c #D3AE06",
"#. c #EDC000",
"$. c None",
"%. c #EDC201",
"&. c #FBF2C9",
"*. c #E8BE01",
"=. c #E3BA01",
"-. c #F4DA65",
";. c None",
":. c #93832C",
">. c #ECC100",
",. c #EDC100",
"<. c #F9EBAB",
"1. c #DBB505",
"2. c #AC941E",
"3. c #EBC100",
"4. c #ECC100",
"5. c #EFC920",
"6. c #FDF9E8",
"7. c #EBC100",
"8. c None",
"9. c #FEFCF1",
"0. c None",
"q. c #4F575B",
"w. c #EBC100",
"e. c #E6BD00",
"r. c #B29819",
"t. c None",
"y. c None",
"u. c #FBF2CA",
"i. c #EDC202",
"p. c #0E2C86",
"a. c #D9B202",
"s. c #6C6944",
"d. c #EEC50B",
"f. c None",
"g. c #B89C14",
"h. c #EDC300",
"j. c #F9EBAC",
"k. c None",
"l. c #1A347C",
"z. c None",
"x. c #F0CC2A",
"c. c #ECC100",
"v. c #FCF5D4",
"b. c #CBA90C",
"n. c #EEC50C",
"m. c #173380",
"M. c #F9EBAD",
"N. c None",
"B. c #EDC100",
"V. c None",
"C. c #F0CC2B",
"Z. c #112F86",
"A. c None",
"S. c #96862D",
"D. c #F5DD71",
"F. c #EEC50D",
"G. c None",
"H. c #173381",
"J. c #143083",
"K. c #FAEEB7",
"L. c None",
"P. c #F7E490",
"I. c #F0CC2C",
"U. c #E1B903",
"Y. c #F8E799",
"T. c #5C5F4E",
"R. c #EFCB25",
"E. c #F5DD72",
"W. c #EEC50E",
"Q. c #F4DC6B",
"!. c #EDC407",
"~. c None",
"^. c #3D4A62",
"/. c #9C8A29",
"(. c #515754",
"). c #15307F",
"_. c #F8E79A",
"`. c #F1CF36",
"'. c #ECC100",
"]. c #EEC50F",
"[. c #545851",
"{. c #F5DD73",
"}. c None",
"|. c #F4DC6C",
" X c #EDC408",
".X c None",
"XX c None",
"oX c #F3D655",
"OX c #ECC100",
"+X c None",
"@X c #F2D54E",
"#X c #D5B003",
"$X c #434E5E",
"%X c #0F2E87",
"&X c #DFB803",
"*X c #ECC100",
"=X c None",
"-X c None",
";X c None",
":X c #0C2B89",
">X c #F1CF37",
",X c #ECC100",
"<X c #ECC200",
"1X c #ECC100",
"2X c #EFC819",
"3X c #ECC100",
"4X c #FDF8E1",
"5X c #092A8D",
"6X c #EDC409",
"7X c None",
"8X c #EBC200",
"9X c #002596",
"0X c #EBC200",
"qX c #FBF1C3",
"wX c #F4D95F",
"eX c #ECC200",
"rX c #F2D54F",
"tX c #DAB404",
"yX c #F8E79C",
"uX c #F1CF38",
"iX c #EFC81A",
"pX c #D4B00A",
"aX c None",
"sX c #263C77",
"dX c #213877",
"fX c #FBF1C4",
"gX c #ECC200",
"hX c None",
"jX c None",
"kX c #F1CF39",
"lX c #525752",
"zX c #EAC000",
"xX c #E5BC00",
"cX c #F7E696",
"vX c #F0CE32",
"bX c None",
"nX c #3B4964",
"mX c None",
"MX c #F6E07F",
"NX c None",
"BX c #FDF8E3",
"VX c #FEFBEC",
"CX c None",
"ZX c #5D5F4D",
"AX c #F5DF78",
"SX c #EEC714",
"DX c #FCF7DC",
"FX c #FBF1C5",
"GX c #505651",
"HX c None",
"JX c #EBC200",
"KX c #C7A70F",
"LX c None",
"PX c #F9EAA7",
"IX c #B69B1A",
"UX c #E5BC01",
"YX c #EDC100",
"TX c #07298E",
"RX c #F6E080",
"EX c #EFC81C",
"WX c #EDC100",
"QX c #FEFBED",
"!X c #F0CB25",
"~X c #FCF7DD",
"^X c #EEC715",
"/X c #EBC000",
"(X c #FBF1C6",
")X c #EEC407",
"_X c #FAF0BF",
"`X c #F9EAA8",
"'X c #F1D13D",
"]X c #60624D",
"[X c #EBC200",
"{X c #FEFBEE",
"}X c #EEC716",
"|X c None",
" o c #FAF0C0",
".o c #ECC000",
"Xo c #555A53",
"oo c #012595",
"Oo c #F3D85C",
"+o c None",
"@o c #47515C",
"#o c #F2D245",
"$o c None",
"%o c #E5BC03",
"&o c #5B5E4E",
"*o c None",
"=o c #FEFBEF",
"-o c None",
";o c #EBC200",
":o c #F7E38B",
">o c #ECC200",
",o c #EBC200",
"<o c #EDC200",
"1o c #F6E284",
"2o c #9A8620",
"3o c #ECC200",
"4o c #968529",
"5o c #8C7D29",
"6o c None",
"7o c #F5DC6D",
"8o c #FCF4D1",
"9o c #837832",
"0o c #EBC000",
"qo c #EBC000",
"wo c None",
"eo c #DEB702",
"ro c #D9B302",
"to c #978524",
"yo c #FAEDB3",
"uo c #F8E9A3",
"io c #4D5558",
"po c #B09616",
"ao c #FEFBF0",
"so c #F0CB28",
"do c #1F377A",
"fo c #FDFAE9",
"go c None",
"ho c #FCF4D2",
"jo c #EEC40A",
"ko c #EBC100",
"lo c #EDC303",
"zo c #EBC000",
"xo c #EBC000",
"co c #ECC000",
"vo c #F3D550",
"bo c #FAEDB4",
"no c #F8E9A4",
"mo c #EBC000",
"Mo c None",
"No c #EBC000",
"Bo c None",
"Vo c #EDC200",
"Co c #EBC000",
"Zo c None",
"Ao c #FDFAEA",
"So c #EFCA22",
"Do c #F6E286",
"Fo c None",
"Go c #F5DC6F",
"Ho c #B79D1B",
"Jo c #EEC40B",
"Ko c None",
"Lo c #FBF3CC",
"Po c #0E2D88",
"Io c #EDC304",
"Uo c #F4DB68",
"Yo c None",
"To c #052891",
"Ro c None",
"Eo c #ECC200",
"Wo c #FAEDB5",
"Qo c #F3D551",
"!o c #F8E9A5",
"~o c #F2D44A",
"^o c #78703A",
"/o c #F8E697",
"(o c #F1CE33",
")o c #EFCA23",
"_o c None",
"`o c #FDFAEB",
"'o c #F6E287",
"]o c #F0CD2C",
"[o c #B2991C",
"{o c #A38D1C",
"}o c #EDC305",
"|o c #FBF3CD",
" O c #424D60",
".O c None",
"XO c #716B39",
"oO c #ECC200",
"OO c #ECC200",
"+O c #31436D",
"@O c #F8E698",
"#O c #EFCA24",
"$O c #F7E591",
"%O c #F0CD2D",
"&O c #ECC000",
"*O c None",
"=O c #FDF7DE",
"-O c #173281",
";O c #F6DF7A",
":O c #6B673F",
">O c #EDC306",
",O c #F4DB6A",
"<O c #BC9E0F",
"1O c #A99118",
"2O c None",
"3O c #AA9421",
"4O c #F9ECB0",
"5O c #F2D44C",
"6O c #E9BF01",
"7O c #143185",
"8O c #CCAA0A",
"9O c #ECC200",
"0O c #EDC200",
"qO c None",
"wO c None",
"eO c #EDC000",
"rO c #F7E592",
"tO c #0C2C89",
"yO c None",
"uO c None",
"iO c #ECC200",
"pO c #FDF7DF",
"aO c #F6DF7B",
"sO c #ECC000",
"dO c #D4AF07",
"fO c #FBF3CF",
"gO c #ECC000",
"hO c #EEC610",
"jO c #FCF6D8",
"kO c #F5DE74",
"lO c None",
/* pixels */
"                      bX*oB L.KoJ ;.qOwObX                      ",
"                  XXG.<XcoEo0o'.O.OO&O>.,.KowO                  ",
"              * mX+ X.No] ] %.lolo%.] ] Noqo{ hXjX              ",
"          7XuOVoo.] %.c 'X7orOnouo$OQ.D t %.] [Xb qO            ",
"        bX8.i mo%.n D.Q {X{X~X8oho=O=oQXfX|.2X%.iO4.aXbX        ",
"      bXK C 1X>Ovou.ao oE.k +.^X^X5./ y qX9.FX~o}oNoc.7         ",
"      f.h ] joy Ao|oZ = %.] ] ] ] ] ] %.c wXho6.7o XNo8X-X      ",
"    Bo.o,X!.AX=o`X#O%.] ] ] ] ] ] ] ] ] ] %.so4O{XGo}omoB.+o    ",
"  bXMo#.%.3 L !o}X] ] ] ] ] 3X3X3X3X] ] ] ] ] iXM.fo@X%.O.k.    ",
"  wo0X] So8oFX+.] ] ] ] ] 3X8O4og.:.pX%o] ] ] ] !XLo&.n ] 0O~.  ",
"  $ 9Oi.RXVX5O] ] ] ] ] 3X1.r l.dotOsXq.Ho] ] ] %.oX=o- i.T N.  ",
"o h.] EXv.M.jo] ] ] ] w.b.Xof dXH ).PoooN Co] ] ] W.K.Lo}X] gXCX",
"goC ] rXaos ] ] ] ] 3XdOio-OP lX( GX5o O[o] ] ] ] ] ! =o#o] & e ",
"-oqo%.Do4X!X] ] ] ] e.9oTX]X1OR {o&oeotXCo] ] ] ] ] ]o) ;O] ' HX",
"t.zo}oj.(X].] ] ] . @.8 4 /.g R {oT.6O] ] ] ] ] ] ] SXfO| lo; $o",
".OiOjoA bo!.] ] ] w.l H.5X3Og R {oT.6O] ] ] ] ] ] ] JoE yo!.xoYo",
"V.mod._X2 >O] ] ] zXpoZ.U S.g R {oT.6O] ] ] ] ] ] ] jo5 Wo)X;o$ ",
"$ 6 !.2 _Xd.] ] ] Co<Ou 9X: 1OR {oT.6O] ] ] ] ] ] ] hO[ PXIoOXN.",
"d '.%.P.> n ] ] ] 3X#X$X9X7OXO[.{oT.*.1.2.%o] ] ] ] )opO1o%.qo;X",
"-XJX] Oo{X#o] ] ] ] xXp %X9Xp.nX5o(.r.ZX@o0 ] ] ] ] @X=oQo] S |X",
"q I ] R.=OrOIo] ] ] 3Xa., %X9XTo~ _ J.+OIX3X] ] ] >Ow jO+.] eOz.",
"  _o3.}ocX% @ ] ] ] ] Coroto^.:X~ m.s.KXw.] ] ] ] >Xm :oloxoFo  ",
"  6oa ] vX% | F.] ] ] ] 3XxXz :O2o^oUX. ] ] ] ] hO<.v C.] /X1   ",
"  $.ko3.lokO{Xy !.] ] ] ] 3X=.&X< U.] ] ] ] ] 6XMXQX,Oi.6 } NX  ",
"    1 O ] ]._.`o{.d.] ] ] ] ] ] ] ] ] ] ] ] F.aOL $On.] >oW     ",
"    bXyOV ] }XyXQX_.soi.] ] ] ] ] ] ] ] loI.| QX9 t ] YXj       ",
"      lOY  .] hOAXBX> ` `.t }o%.%.}oc kX'oDX% D.F.] oOMo$.      ",
"        z.LX' ] IouXF BXfou.../o@Oj.LoAo4XY.(olo] WXV.o         ",
"          y.Zoc.mo] !.%OUoF _XLoLoE w -.x.>O] ,o# M 0.          ",
"            bXuOeXx 7.] ] lod.= = d.lo] ] mo^ <oqObX            ",
"                y.HX2O8XgO*XNo] ] NozosO3o*ORolO                ",
"                    bXX }.Yo=X.X.X+XA.HXG bX                    "
};
